<svg width="158" height="20" viewBox="0 0 158 20" fill="none" xmlns="http://www.w3.org/2000/svg">
<path d="M7.5497 2.35303C3.37932 2.35303 0 5.64429 0 9.70597C0 13.7677 3.37932 17.0589 7.5497 17.0589C11.0935 17.0589 14.0646 14.6798 14.8778 11.4687H11.6947C10.9954 13.025 9.40701 14.1159 7.5497 14.1159C5.04683 14.1159 3.0186 12.1405 3.0186 9.70291C3.0186 7.26526 5.04999 5.29297 7.5497 5.29297H12.0808H13.59H15.0993V2.35303H7.5497Z" fill="white"/>
<path d="M15.0995 7.01855H8.91675V10.0294H15.0995V7.01855Z" fill="white"/>
<path d="M17.7351 9.70597C17.7351 5.46246 20.9974 2.35303 25.4272 2.35303C29.3792 2.35303 32.0244 4.67355 32.6066 7.62891H29.3602C29.0248 6.28838 27.5629 5.22209 25.4968 5.22209C22.8863 5.22209 20.9436 7.09579 20.9436 9.70597C20.9436 12.3007 22.8832 14.1899 25.4968 14.1899C27.5598 14.1899 29.2558 12.8678 29.5026 11.595H32.7458C32.306 14.4117 29.4108 17.0589 25.4272 17.0589C20.9974 17.0589 17.7351 13.9495 17.7351 9.70597Z" fill="white"/>
<path d="M33.9734 9.70597C33.9734 5.46246 37.2736 2.35303 41.735 2.35303C46.1965 2.35303 49.4967 5.46246 49.4967 9.70597C49.4967 13.9495 46.1965 17.0589 41.735 17.0589C37.2736 17.0589 33.9734 13.9495 33.9734 9.70597ZM46.2851 9.70597C46.2851 7.06185 44.3455 5.1697 41.735 5.1697C39.1246 5.1697 37.1818 7.05879 37.1818 9.70597C37.1818 12.3347 39.1215 14.2423 41.735 14.2423C44.3486 14.2423 46.2851 12.3347 46.2851 9.70597Z" fill="white"/>
<path d="M50.7783 9.70597C50.7783 5.46246 54.0754 2.35303 58.54 2.35303C63.0048 2.35303 66.3017 5.46246 66.3017 9.70597C66.3017 13.9495 63.0018 17.0589 58.54 17.0589C54.0785 17.0589 50.7783 13.9495 50.7783 9.70597ZM63.0901 9.70597C63.0901 7.06185 61.1502 5.1697 58.54 5.1697C55.9296 5.1697 53.9868 7.05879 53.9868 9.70597C53.9868 12.3347 55.9264 14.2423 58.54 14.2423C61.1538 14.2423 63.0901 12.3347 63.0901 9.70597Z" fill="white"/>
<path d="M79.3125 5.48075H74.6361V16.7166H71.4245V5.48075H66.7476V2.71338H79.3095V5.48075H79.3125Z" fill="white"/>
<path d="M81.0469 2.71338H91.7386V5.42836H84.2585V8.27891H91.1216V10.9939H84.2585V14.0017H91.8966V16.7166H81.0469V2.71338Z" fill="white"/>
<path d="M102.613 16.7166L99.8259 12.3006H97.2661V16.7166H94.0544V2.71338H99.8416C103.493 2.71338 105.629 4.60246 105.629 7.50544C105.629 9.42839 104.692 10.9076 103 11.6811L106.335 16.7166H102.613ZM97.2661 9.53321H99.6992C101.392 9.53321 102.418 8.8275 102.418 7.50544C102.418 6.18339 101.392 5.47767 99.6992 5.47767H97.2661V9.53321Z" fill="white"/>
<path d="M113.183 14.1859V15.3224H126.96V14.1859H113.183ZM119.323 10.3318V14.6965H120.719V10.3318H119.323ZM114.378 3.69412V4.81412H125.665V3.69412H114.378ZM114.411 9.68942V10.7929H125.648V9.68942H114.411ZM116.749 4.6V9.88706H118.146V4.6H116.749ZM121.93 4.6V9.88706H123.31V4.6H121.93ZM134.242 3.29883V4.4353C134.242 6.97177 131.383 9.24471 128.708 9.73883L129.331 10.8753C132.375 10.2 135.454 7.68 135.454 4.4353V3.29883H134.242ZM134.495 3.29883V4.4353C134.495 7.69648 137.59 10.2 140.618 10.8753L141.24 9.73883C138.582 9.24471 135.706 6.98824 135.706 4.4353V3.29883H134.495ZM128.153 14.0377V15.1577H141.93V14.0377H128.153ZM144.889 10.2988V11.4024H155.335V10.2988H144.889ZM143.123 14.12V15.2565H156.899V14.12H143.123ZM144.889 3.54589V10.6447H146.302V4.66589H155.167V3.54589H144.889ZM145.848 6.87295V7.96H154.847V6.87295H145.848Z" fill="white"/>
</svg>
